<?xml version="1.0" encoding="utf-8"?>
<!-- Generator: Adobe Illustrator 22.0.0, SVG Export Plug-In . SVG Version: 6.00 Build 0)  -->
<svg version="1.1" id="Layer_1" xmlns="http://www.w3.org/2000/svg" xmlns:xlink="http://www.w3.org/1999/xlink" x="0px" y="0px"
	 viewBox="0 0 48 48" style="enable-background:new 0 0 48 48;" xml:space="preserve">
<style type="text/css">
	.st0{fill:#007AFF;}
</style>
<g id="Icons">
	<g id="Icons_22_">
		<g>
			<path class="st0" d="M35,10.5H13c-1.4,0-2.5,1.1-2.5,2.5V35c0,1.4,1.1,2.5,2.5,2.5H35c1.4,0,2.5-1.1,2.5-2.5V13
				C37.5,11.7,36.3,10.5,35,10.5z M19.4,31.3c-1,0-1.9,0-2.9,0c-0.2,0-0.2,0-0.2-0.2V21c0-0.2,0.1-0.2,0.2-0.2c1,0,1.9,0,2.9,0
				c0.2,0,0.2,0.1,0.2,0.2V26c0,1.7,0,3.4,0,5.1C19.7,31.3,19.6,31.3,19.4,31.3z M18,19.4c-1.1,0-1.9-0.9-1.9-1.9
				c0-1,0.8-1.9,1.9-1.9c1.1,0,1.9,0.8,1.9,1.9C19.9,18.5,19.1,19.3,18,19.4z M31.6,31.3h-2.8c-0.2,0-0.2,0-0.2-0.3v-5.1
				c0-0.5,0-1-0.2-1.4c-0.2-0.7-0.7-1.1-1.5-1.1c-0.5,0-1,0.1-1.4,0.5c-0.3,0.3-0.4,0.7-0.5,1.2c0,0.4-0.1,0.8-0.1,1.2
				c0,1.6,0,3.2,0,4.8c0,0.2,0,0.2-0.2,0.2c-1,0-1.9,0-2.9,0c-0.2,0-0.2,0-0.2-0.2c0-3.4,0-6.8,0-10.2c0-0.2,0.1-0.2,0.2-0.2
				c0.9,0,1.8,0,2.8,0c0.2,0,0.2,0.1,0.2,0.2c0,0.4,0,0.8,0,1.1c0.5-0.8,1.2-1.3,2.1-1.5c1-0.3,2-0.2,3,0.3c0.9,0.4,1.4,1.2,1.7,2.1
				c0.2,0.6,0.3,1.2,0.3,1.9c0,2.1,0,4.1,0,6.2C31.9,31.3,31.9,31.3,31.6,31.3z"/>
		</g>
	</g>
</g>
</svg>
