<?xml version="1.0" encoding="utf-8"?>
<!-- Generator: Adobe Illustrator 22.0.0, SVG Export Plug-In . SVG Version: 6.00 Build 0)  -->
<svg version="1.1" id="Layer_1" xmlns="http://www.w3.org/2000/svg" xmlns:xlink="http://www.w3.org/1999/xlink" x="0px" y="0px"
	 viewBox="0 0 48 48" style="enable-background:new 0 0 48 48;" xml:space="preserve">
<style type="text/css">
	.st0{fill:#007AFF;}
</style>
<g id="Icons">
	<g id="Icons_13_">
		<g>
			<path class="st0" d="M24,8.7C15.5,8.7,8.7,15.5,8.7,24c0,8.5,6.9,15.3,15.3,15.3c8.5,0,15.3-6.9,15.3-15.3
				C39.3,15.5,32.5,8.7,24,8.7z M32.2,19.8c0,0,0,1.9-0.3,3.1c-0.3,1.2-1.2,4.4-4,6.7s-6.2,2.8-8.2,2.7c-1.9-0.1-4.3-0.9-5.8-1.8
				c0,0,3.5,0.4,6.1-1.8c0,0-2.6,0.1-3.9-2.9c0,0,0.9,0.2,1.9-0.1c0,0-3.3-0.6-3.3-4.1c0,0,1.1,0.5,1.9,0.5c0,0-3.1-2.4-1.2-5.5
				c0,0,3.1,4.2,8.6,4.3c-1.3-3.7,4.6-7.1,7.1-3.8c0,0,1,0,2.7-1c0,0-0.4,1.3-1.8,2.2c0,0,1,0,2.2-0.5C34,17.9,33.3,19,32.2,19.8z"
				/>
		</g>
	</g>
</g>
</svg>
