<?xml version="1.0" encoding="utf-8"?>
<!-- Generator: Adobe Illustrator 22.0.0, SVG Export Plug-In . SVG Version: 6.00 Build 0)  -->
<svg version="1.1" id="Layer_1" xmlns="http://www.w3.org/2000/svg" xmlns:xlink="http://www.w3.org/1999/xlink" x="0px" y="0px"
	 viewBox="0 0 48 48" style="enable-background:new 0 0 48 48;" xml:space="preserve">
<style type="text/css">
	.st0{fill:#007AFF;}
</style>
<g id="Icons">
	<g id="Icons_4_">
		<g>
			<path class="st0" d="M24,8.7C15.5,8.7,8.7,15.5,8.7,24c0,8.5,6.9,15.4,15.4,15.4c8.5,0,15.3-6.9,15.3-15.4
				C39.3,15.5,32.5,8.7,24,8.7z M29.8,17.3c0,0-0.5,0-2.2,0c-1.7,0-1.7,1.3-1.7,1.3l0,3.2l3.9,0.1L29.2,26h-3.3l-0.1,8.6h-4L21.6,26
				l-3.5,0l0.1-4.1h3.5v-3c0-0.3,0-0.6,0.1-1c0.1-0.7,0.3-1.4,0.6-2c0.3-0.5,0.7-1,1.2-1.4c0.5-0.4,1.1-0.6,1.7-0.8
				c0.4-0.1,0.9-0.2,1.3-0.2c0.6,0,2.8,0.1,3.4,0.1L29.8,17.3z"/>
		</g>
	</g>
</g>
</svg>
